<svg width="109" height="116" viewBox="0 0 109 116" fill="none" xmlns="http://www.w3.org/2000/svg">
<path d="M54.0895 27.7023C60.6175 35.8943 64.4575 43.0752 65.7375 49.2192C67.0175 54.2112 66.5055 58.1792 64.3295 61.1232C62.0255 64.5792 58.5695 66.2432 54.0895 66.2432C49.6095 66.2432 46.1535 64.5792 43.8495 61.1232C41.6735 58.1792 41.1615 54.2112 42.4415 49.2192C43.8495 42.9472 47.6895 35.7791 54.0895 27.7023V27.7023ZM7.72792 22.1983C8.62392 16.1823 12.7199 11.1903 18.3519 8.75835C29.2319 4.02235 39.9967 11.5743 49.2127 21.8143C33.9679 40.8992 31.1519 55.7472 37.6927 65.36C41.5327 70.864 47.0367 73.552 54.0895 73.552C68.2975 73.552 76.1183 61.52 73.0463 47.5552C71.2543 40.0032 66.5183 31.4143 58.9663 21.8143C63.7023 16.5663 68.1823 12.8543 72.1503 10.5503C75.2223 8.88635 78.1663 7.86235 80.9823 7.60635C93.9103 5.68635 104.035 18.2304 99.4271 31.1712C98.7871 32.8352 97.5071 35.9072 95.3311 40.6432L95.2031 40.8992C88.1631 56.272 79.5743 73.68 69.7183 93.0208L69.4623 93.6608L66.6463 99.0368C64.4703 103.005 63.5743 104.797 60.1183 106.973C58.4543 107.997 56.4063 108.509 54.1023 108.509C49.4943 108.509 45.9103 105.821 44.3743 103.645C43.6063 102.493 42.7103 100.957 41.5583 99.0368L38.8703 93.7888L38.4863 93.0208C28.6303 73.68 20.0415 56.272 13.0015 40.8992L12.8735 40.7712L10.3135 34.8832L8.77753 31.1712C7.59993 28.2144 7.34392 25.2703 7.72792 22.1983ZM1.83992 33.7312C2.73592 36.5472 4.27192 39.8752 6.19192 43.8432V43.9712C15.2799 63.312 23.7407 80.72 31.8047 96.3488L32.3167 97.1168C38.0767 108.893 42.1727 115.946 54.0895 115.946C65.8655 115.946 70.8703 107.754 75.9903 97.1168L76.3743 96.3488C84.4383 80.72 92.8991 63.312 101.987 43.9712V43.7152L104.675 37.8272C105.699 35.3952 106.211 34.1152 106.339 33.7312C112.867 15.7984 99.4271 0.054348 83.1583 0.054348C83.0303 0.054348 82.5183 0.054348 81.8783 0.182348H80.0863C71.6383 1.20635 62.9215 6.58235 54.0895 16.1952C45.2575 6.59515 36.5407 1.20635 28.0927 0.182348H26.3007C25.6607 0.054348 25.1487 0.054348 25.0207 0.054348C8.75192 0.041548 -4.68808 15.7984 1.83992 33.7312Z" fill="#3B82F6"/>
</svg>
